<?xml version="1.0" encoding="UTF-8"?>
<svg id="Ebene_1" xmlns="http://www.w3.org/2000/svg" version="1.1" viewBox="0 0 860.5 380">
  <!-- Generator: Adobe Illustrator 29.8.0, SVG Export Plug-In . SVG Version: 2.1.1 Build 160)  -->
  <defs>
    <style>
      .st0 {
        fill: #34b984;
      }

      .st1 {
        fill: #0e4c33;
      }

      .st2 {
        fill: #f5f3ed;
      }
    </style>
  </defs>
  <rect class="st1" x="0" y=".29" width="860.5" height="379.71"/>
  <path class="st2" d="M353.62,213.14h-22V60.64h-73.75l-104.25,151.25v43.25h128v63h50v-63h35.75l-13.75-42ZM281.62,213.14h-79.5l79.5-112v112ZM595.62,187.56c.07-.32.11-.53.12-.62-.04.1-.12.36-.12.62Z"/>
  <path class="st2" d="M757.75,213.14V60.64h-73.75l-87.51,127.5c-.4.09-.59.02-.7-.07-.13-.12-.17-.31-.17-.5-1.04,5.06-8.13,37.76-14.62,67.57h126.75v63h50v-63h36.5v-42h-36.5ZM707.75,213.14h-79.5l79.5-111.5v111.5Z"/>
  <path class="st0" d="M99.36,322.14c-41.4,2.82-43.95-52.16-7.84-55.84,13.72-1.4,28,3.04,33.69,16.51,8.36,19.78-5.41,37.94-25.85,39.33Z"/>
  <rect class="st0" x="70.12" y="60.65" width="53.5" height="177.25"/>
  <g id="_x39_r6adF.tif">
    <path class="st2" d="M590.74,147.96c-13.9-59.28-60.58-94-121.63-92.07-88.4,2.8-125.72,80.05-115.04,160.18,10.03,75.19,70.33,119.18,145.66,105.7,81.27-14.53,107.98-101.47,91.01-173.82ZM541.06,235.61c-25.39,66.37-119.58,60.35-137.8-11.48-13.69-53.95,3.59-125.44,70.65-125.69,70.47-.26,87.82,83.15,67.15,137.17Z"/>
  </g>
</svg>