<svg width="861" height="380" viewBox="0 0 861 380" fill="none" xmlns="http://www.w3.org/2000/svg">
<g clip-path="url(#clip0_9_19)">
<path d="M767 214.5V61.9999H693.25L605.74 189.5C604.6 189.7 605.06 189 605 188.26C603.85 174.94 603.48 165.09 599.86 151.89C578.35 73.6099 500.19 40.2199 424.5 62.2499C357.66 81.7099 323.29 147.17 334.5 214.5H312.5V61.9999H238.75L134.5 213.25V256.5H262.5V319.5H312.5V256.5H348.25C361.39 281.6 382.17 302.02 408.16 313.59C447.6 331.14 501.01 329.22 539.01 308.76C560.99 296.93 578.45 278.4 590.25 256.5H717V319.5H767V256.5H803.5V214.5H767ZM262.5 214.5H183L262.5 102.5V214.5ZM536.82 247.32C510.69 282.67 453.63 289.35 418.34 264.41C370.6 230.66 370.41 148.49 419.74 115.99C445.57 98.9699 485.01 97.8199 512.01 112.74C558.07 138.18 567.13 206.32 536.82 247.32ZM717 214.5H637.5L717 103V214.5Z" fill="#F5F3ED"/>
<path d="M104.5 62V239.25C104.5 240 99.19 240.83 98.19 240.94C95.42 241.23 91.61 241.41 88.77 241.52C76.36 242.01 63.21 241.39 51 239.5V62H104.5Z" fill="#34B984"/>
<path d="M80.24 323.49C38.84 326.31 36.29 271.33 72.4 267.65C86.12 266.25 100.4 270.69 106.09 284.16C114.45 303.94 100.68 322.1 80.24 323.49Z" fill="#34B984"/>
</g>
<defs>
<clipPath id="clip0_9_19">
<rect width="860.5" height="380" fill="white"/>
</clipPath>
</defs>
</svg>
